<svg id="Layer_1" data-name="Layer 1" xmlns="http://www.w3.org/2000/svg" viewBox="0 0 182 182"><defs><style>.cls-1{fill:#1f5182;}</style></defs><title>logo-icon</title><path class="cls-1" d="M91,50c-21.6,0-39.2-3.8-39.2-8.4S69.4,33.2,91,33.3s39.2,3.8,39.2,8.4S112.6,50,91,50h0Zm0,61a19.4,19.4,0,1,1,19.4-19.4A19.4,19.4,0,0,1,91,110.9h0Zm0-87.5h0c-33.7,0-61.2,9.1-61.2,20.3,0,3,7.3,45.4,10.3,62.3,1.3,7.6,20.8,18.6,50.9,18.6h0c30.1,0,49.6-11.1,50.9-18.6,2.9-16.8,10.3-59.3,10.3-62.3,0-11.2-27.5-20.3-61.2-20.3h0Z"/><path class="cls-1" d="M135,122.8a2.8,2.8,0,0,0-1.7.7S118.2,135.4,91,135.4s-42.3-11.9-42.3-11.9a2.8,2.8,0,0,0-1.7-.7,2.1,2.1,0,0,0-2.2,2.4,2.8,2.8,0,0,0,0,.5c2.3,12.5,4,21.4,4.3,22.7,2,9.2,20,16.2,41.7,16.2h0c21.7,0,39.7-6.9,41.7-16.2,0.3-1.4,2-10.2,4.3-22.7a2.8,2.8,0,0,0,0-.5,2.1,2.1,0,0,0-2.2-2.4h0Z"/><path class="cls-1" d="M100.7,91.5A9.7,9.7,0,1,1,91,81.7a9.7,9.7,0,0,1,9.7,9.7h0Z"/></svg>